<?xml version="1.0" encoding="UTF-8" standalone="no"?>
<!DOCTYPE svg PUBLIC "-//W3C//DTD SVG 1.1//EN"
 "http://www.w3.org/Graphics/SVG/1.1/DTD/svg11.dtd">
<!-- Generated by graphviz version 2.43.0 (0)
 -->
<!-- Title: %3 Pages: 1 -->
<svg width="1519pt" height="206pt"
 viewBox="0.00 0.00 1519.00 206.00" xmlns="http://www.w3.org/2000/svg" xmlns:xlink="http://www.w3.org/1999/xlink">
<g id="graph0" class="graph" transform="scale(1 1) rotate(0) translate(4 202)">
<title>%3</title>
<polygon fill="white" stroke="transparent" points="-4,4 -4,-202 1515,-202 1515,4 -4,4"/>
<!-- 1 -->
<g id="node1" class="node">
<title>1</title>
<path fill="#add8e6" stroke="black" d="M111,-117C111,-117 12,-117 12,-117 6,-117 0,-111 0,-105 0,-105 0,-93 0,-93 0,-87 6,-81 12,-81 12,-81 111,-81 111,-81 117,-81 123,-87 123,-93 123,-93 123,-105 123,-105 123,-111 117,-117 111,-117"/>
<text text-anchor="middle" x="61.5" y="-95.3" font-family="Helvetica,sans-Serif" font-size="14.00">Walk to toolbox</text>
</g>
<!-- 2 -->
<g id="node2" class="node">
<title>2</title>
<path fill="#add8e6" stroke="black" d="M269,-117C269,-117 171,-117 171,-117 165,-117 159,-111 159,-105 159,-105 159,-93 159,-93 159,-87 165,-81 171,-81 171,-81 269,-81 269,-81 275,-81 281,-87 281,-93 281,-93 281,-105 281,-105 281,-111 275,-117 269,-117"/>
<text text-anchor="middle" x="220" y="-95.3" font-family="Helvetica,sans-Serif" font-size="14.00">Pick up toolbox</text>
</g>
<!-- 1&#45;&gt;2 -->
<g id="edge1" class="edge">
<title>1&#45;&gt;2</title>
<path fill="none" stroke="#696969" stroke-width="1.5" d="M123.01,-99C131.48,-99 140.24,-99 148.87,-99"/>
<polygon fill="#696969" stroke="#696969" stroke-width="1.5" points="158.91,-99 148.91,-103.5 153.91,-99.25 148.91,-99.25 148.91,-99 148.91,-98.75 153.91,-98.75 148.91,-94.5 158.91,-99 158.91,-99"/>
</g>
<!-- 3 -->
<g id="node3" class="node">
<title>3</title>
<path fill="#add8e6" stroke="black" d="M443,-117C443,-117 329,-117 329,-117 323,-117 317,-111 317,-105 317,-105 317,-93 317,-93 317,-87 323,-81 329,-81 329,-81 443,-81 443,-81 449,-81 455,-87 455,-93 455,-93 455,-105 455,-105 455,-111 449,-117 443,-117"/>
<text text-anchor="middle" x="386" y="-95.3" font-family="Helvetica,sans-Serif" font-size="14.00">Transport toolbox</text>
</g>
<!-- 2&#45;&gt;3 -->
<g id="edge2" class="edge">
<title>2&#45;&gt;3</title>
<path fill="none" stroke="#696969" stroke-width="1.5" d="M281.14,-99C289.48,-99 298.15,-99 306.77,-99"/>
<polygon fill="#696969" stroke="#696969" stroke-width="1.5" points="316.83,-99 306.83,-103.5 311.83,-99.25 306.83,-99.25 306.83,-99 306.83,-98.75 311.83,-98.75 306.83,-94.5 316.83,-99 316.83,-99"/>
</g>
<!-- 4 -->
<g id="node4" class="node">
<title>4</title>
<path fill="#add8e6" stroke="black" d="M648,-117C648,-117 503,-117 503,-117 497,-117 491,-111 491,-105 491,-105 491,-93 491,-93 491,-87 497,-81 503,-81 503,-81 648,-81 648,-81 654,-81 660,-87 660,-93 660,-93 660,-105 660,-105 660,-111 654,-117 648,-117"/>
<text text-anchor="middle" x="575.5" y="-95.3" font-family="Helvetica,sans-Serif" font-size="14.00">Place toolbox on table</text>
</g>
<!-- 3&#45;&gt;4 -->
<g id="edge3" class="edge">
<title>3&#45;&gt;4</title>
<path fill="none" stroke="#696969" stroke-width="1.5" d="M455.22,-99C463.58,-99 472.22,-99 480.87,-99"/>
<polygon fill="#696969" stroke="#696969" stroke-width="1.5" points="491,-99 481,-103.5 486,-99.25 481,-99.25 481,-99 481,-98.75 486,-98.75 481,-94.5 491,-99 491,-99"/>
</g>
<!-- 5 -->
<g id="node5" class="node">
<title>5</title>
<path fill="#add8e6" stroke="black" d="M860,-198C860,-198 708,-198 708,-198 702,-198 696,-192 696,-186 696,-186 696,-174 696,-174 696,-168 702,-162 708,-162 708,-162 860,-162 860,-162 866,-162 872,-168 872,-174 872,-174 872,-186 872,-186 872,-192 866,-198 860,-198"/>
<text text-anchor="middle" x="784" y="-176.3" font-family="Helvetica,sans-Serif" font-size="14.00">Walk to turquoise chair</text>
</g>
<!-- 4&#45;&gt;5 -->
<g id="edge4" class="edge">
<title>4&#45;&gt;5</title>
<path fill="none" stroke="#696969" stroke-width="1.5" d="M613.41,-117.1C636.78,-128.21 667.8,-142.3 696,-153 701.08,-154.93 706.37,-156.83 711.71,-158.67"/>
<polygon fill="#696969" stroke="#696969" stroke-width="1.5" points="721.36,-161.91 710.45,-162.99 716.54,-160.55 711.8,-158.96 711.88,-158.72 711.96,-158.49 716.7,-160.08 713.32,-154.46 721.36,-161.91 721.36,-161.91"/>
</g>
<!-- 9 -->
<g id="node9" class="node">
<title>9</title>
<path fill="#add8e6" stroke="black" d="M845.5,-144C845.5,-144 722.5,-144 722.5,-144 716.5,-144 710.5,-138 710.5,-132 710.5,-132 710.5,-120 710.5,-120 710.5,-114 716.5,-108 722.5,-108 722.5,-108 845.5,-108 845.5,-108 851.5,-108 857.5,-114 857.5,-120 857.5,-120 857.5,-132 857.5,-132 857.5,-138 851.5,-144 845.5,-144"/>
<text text-anchor="middle" x="784" y="-122.3" font-family="Helvetica,sans-Serif" font-size="14.00">Walk to red chair 1</text>
</g>
<!-- 4&#45;&gt;9 -->
<g id="edge8" class="edge">
<title>4&#45;&gt;9</title>
<path fill="none" stroke="#696969" stroke-width="1.5" d="M660.19,-109.94C673.47,-111.68 687.19,-113.47 700.44,-115.21"/>
<polygon fill="#696969" stroke="#696969" stroke-width="1.5" points="710.46,-116.52 699.96,-119.68 705.47,-116.12 700.51,-115.47 700.55,-115.22 700.58,-114.97 705.54,-115.62 701.13,-110.76 710.46,-116.52 710.46,-116.52"/>
</g>
<!-- 13 -->
<g id="node13" class="node">
<title>13</title>
<path fill="#add8e6" stroke="black" d="M845.5,-90C845.5,-90 722.5,-90 722.5,-90 716.5,-90 710.5,-84 710.5,-78 710.5,-78 710.5,-66 710.5,-66 710.5,-60 716.5,-54 722.5,-54 722.5,-54 845.5,-54 845.5,-54 851.5,-54 857.5,-60 857.5,-66 857.5,-66 857.5,-78 857.5,-78 857.5,-84 851.5,-90 845.5,-90"/>
<text text-anchor="middle" x="784" y="-68.3" font-family="Helvetica,sans-Serif" font-size="14.00">Walk to red chair 2</text>
</g>
<!-- 4&#45;&gt;13 -->
<g id="edge12" class="edge">
<title>4&#45;&gt;13</title>
<path fill="none" stroke="#696969" stroke-width="1.5" d="M660.19,-88.06C673.47,-86.32 687.19,-84.53 700.44,-82.79"/>
<polygon fill="#696969" stroke="#696969" stroke-width="1.5" points="710.46,-81.48 701.13,-87.24 705.54,-82.38 700.58,-83.03 700.55,-82.78 700.51,-82.53 705.47,-81.88 699.96,-78.32 710.46,-81.48 710.46,-81.48"/>
</g>
<!-- 17 -->
<g id="node17" class="node">
<title>17</title>
<path fill="#add8e6" stroke="black" d="M845.5,-36C845.5,-36 722.5,-36 722.5,-36 716.5,-36 710.5,-30 710.5,-24 710.5,-24 710.5,-12 710.5,-12 710.5,-6 716.5,0 722.5,0 722.5,0 845.5,0 845.5,0 851.5,0 857.5,-6 857.5,-12 857.5,-12 857.5,-24 857.5,-24 857.5,-30 851.5,-36 845.5,-36"/>
<text text-anchor="middle" x="784" y="-14.3" font-family="Helvetica,sans-Serif" font-size="14.00">Walk to red chair 3</text>
</g>
<!-- 4&#45;&gt;17 -->
<g id="edge16" class="edge">
<title>4&#45;&gt;17</title>
<path fill="none" stroke="#696969" stroke-width="1.5" d="M613.41,-80.9C636.78,-69.79 667.8,-55.7 696,-45 701.08,-43.07 706.37,-41.17 711.71,-39.33"/>
<polygon fill="#696969" stroke="#696969" stroke-width="1.5" points="721.36,-36.09 713.32,-43.54 716.7,-37.92 711.96,-39.51 711.88,-39.28 711.8,-39.04 716.54,-37.45 710.45,-35.01 721.36,-36.09 721.36,-36.09"/>
</g>
<!-- 6 -->
<g id="node6" class="node">
<title>6</title>
<path fill="#add8e6" stroke="black" d="M1072,-198C1072,-198 920,-198 920,-198 914,-198 908,-192 908,-186 908,-186 908,-174 908,-174 908,-168 914,-162 920,-162 920,-162 1072,-162 1072,-162 1078,-162 1084,-168 1084,-174 1084,-174 1084,-186 1084,-186 1084,-192 1078,-198 1072,-198"/>
<text text-anchor="middle" x="996" y="-176.3" font-family="Helvetica,sans-Serif" font-size="14.00">Pick up turquoise chair</text>
</g>
<!-- 5&#45;&gt;6 -->
<g id="edge5" class="edge">
<title>5&#45;&gt;6</title>
<path fill="none" stroke="#696969" stroke-width="1.5" d="M872.23,-180C880.57,-180 889.05,-180 897.47,-180"/>
<polygon fill="#696969" stroke="#696969" stroke-width="1.5" points="907.7,-180 897.7,-184.5 902.7,-180.25 897.7,-180.25 897.7,-180 897.7,-179.75 902.7,-179.75 897.7,-175.5 907.7,-180 907.7,-180"/>
</g>
<!-- 7 -->
<g id="node7" class="node">
<title>7</title>
<path fill="#add8e6" stroke="black" d="M1299,-198C1299,-198 1132,-198 1132,-198 1126,-198 1120,-192 1120,-186 1120,-186 1120,-174 1120,-174 1120,-168 1126,-162 1132,-162 1132,-162 1299,-162 1299,-162 1305,-162 1311,-168 1311,-174 1311,-174 1311,-186 1311,-186 1311,-192 1305,-198 1299,-198"/>
<text text-anchor="middle" x="1215.5" y="-176.3" font-family="Helvetica,sans-Serif" font-size="14.00">Transport turquoise chair</text>
</g>
<!-- 6&#45;&gt;7 -->
<g id="edge6" class="edge">
<title>6&#45;&gt;7</title>
<path fill="none" stroke="#696969" stroke-width="1.5" d="M1084.21,-180C1092.62,-180 1101.21,-180 1109.77,-180"/>
<polygon fill="#696969" stroke="#696969" stroke-width="1.5" points="1119.78,-180 1109.78,-184.5 1114.78,-180.25 1109.78,-180.25 1109.78,-180 1109.78,-179.75 1114.78,-179.75 1109.78,-175.5 1119.78,-180 1119.78,-180"/>
</g>
<!-- 8 -->
<g id="node8" class="node">
<title>8</title>
<path fill="#add8e6" stroke="black" d="M1499,-198C1499,-198 1359,-198 1359,-198 1353,-198 1347,-192 1347,-186 1347,-186 1347,-174 1347,-174 1347,-168 1353,-162 1359,-162 1359,-162 1499,-162 1499,-162 1505,-162 1511,-168 1511,-174 1511,-174 1511,-186 1511,-186 1511,-192 1505,-198 1499,-198"/>
<text text-anchor="middle" x="1429" y="-176.3" font-family="Helvetica,sans-Serif" font-size="14.00">Stack turquoise chair</text>
</g>
<!-- 7&#45;&gt;8 -->
<g id="edge7" class="edge">
<title>7&#45;&gt;8</title>
<path fill="none" stroke="#696969" stroke-width="1.5" d="M1311.12,-180C1319.56,-180 1328.1,-180 1336.52,-180"/>
<polygon fill="#696969" stroke="#696969" stroke-width="1.5" points="1346.71,-180 1336.71,-184.5 1341.71,-180.25 1336.71,-180.25 1336.71,-180 1336.71,-179.75 1341.71,-179.75 1336.71,-175.5 1346.71,-180 1346.71,-180"/>
</g>
<!-- 10 -->
<g id="node10" class="node">
<title>10</title>
<path fill="#add8e6" stroke="black" d="M1057,-144C1057,-144 935,-144 935,-144 929,-144 923,-138 923,-132 923,-132 923,-120 923,-120 923,-114 929,-108 935,-108 935,-108 1057,-108 1057,-108 1063,-108 1069,-114 1069,-120 1069,-120 1069,-132 1069,-132 1069,-138 1063,-144 1057,-144"/>
<text text-anchor="middle" x="996" y="-122.3" font-family="Helvetica,sans-Serif" font-size="14.00">Pick up red chair 1</text>
</g>
<!-- 9&#45;&gt;10 -->
<g id="edge9" class="edge">
<title>9&#45;&gt;10</title>
<path fill="none" stroke="#696969" stroke-width="1.5" d="M857.56,-126C875.37,-126 894.55,-126 912.78,-126"/>
<polygon fill="#696969" stroke="#696969" stroke-width="1.5" points="922.79,-126 912.79,-130.5 917.79,-126.25 912.79,-126.25 912.79,-126 912.79,-125.75 917.79,-125.75 912.79,-121.5 922.79,-126 922.79,-126"/>
</g>
<!-- 11 -->
<g id="node11" class="node">
<title>11</title>
<path fill="#add8e6" stroke="black" d="M1284.5,-144C1284.5,-144 1146.5,-144 1146.5,-144 1140.5,-144 1134.5,-138 1134.5,-132 1134.5,-132 1134.5,-120 1134.5,-120 1134.5,-114 1140.5,-108 1146.5,-108 1146.5,-108 1284.5,-108 1284.5,-108 1290.5,-108 1296.5,-114 1296.5,-120 1296.5,-120 1296.5,-132 1296.5,-132 1296.5,-138 1290.5,-144 1284.5,-144"/>
<text text-anchor="middle" x="1215.5" y="-122.3" font-family="Helvetica,sans-Serif" font-size="14.00">Transport red chair 1</text>
</g>
<!-- 10&#45;&gt;11 -->
<g id="edge10" class="edge">
<title>10&#45;&gt;11</title>
<path fill="none" stroke="#696969" stroke-width="1.5" d="M1069.12,-126C1086.75,-126 1105.84,-126 1124.21,-126"/>
<polygon fill="#696969" stroke="#696969" stroke-width="1.5" points="1134.32,-126 1124.32,-130.5 1129.32,-126.25 1124.32,-126.25 1124.32,-126 1124.32,-125.75 1129.32,-125.75 1124.32,-121.5 1134.32,-126 1134.32,-126"/>
</g>
<!-- 12 -->
<g id="node12" class="node">
<title>12</title>
<path fill="#add8e6" stroke="black" d="M1484,-144C1484,-144 1374,-144 1374,-144 1368,-144 1362,-138 1362,-132 1362,-132 1362,-120 1362,-120 1362,-114 1368,-108 1374,-108 1374,-108 1484,-108 1484,-108 1490,-108 1496,-114 1496,-120 1496,-120 1496,-132 1496,-132 1496,-138 1490,-144 1484,-144"/>
<text text-anchor="middle" x="1429" y="-122.3" font-family="Helvetica,sans-Serif" font-size="14.00">Stack red chair 1</text>
</g>
<!-- 11&#45;&gt;12 -->
<g id="edge11" class="edge">
<title>11&#45;&gt;12</title>
<path fill="none" stroke="#696969" stroke-width="1.5" d="M1296.76,-126C1314.74,-126 1333.75,-126 1351.57,-126"/>
<polygon fill="#696969" stroke="#696969" stroke-width="1.5" points="1361.9,-126 1351.9,-130.5 1356.9,-126.25 1351.9,-126.25 1351.9,-126 1351.9,-125.75 1356.9,-125.75 1351.9,-121.5 1361.9,-126 1361.9,-126"/>
</g>
<!-- 14 -->
<g id="node14" class="node">
<title>14</title>
<path fill="#add8e6" stroke="black" d="M1057,-90C1057,-90 935,-90 935,-90 929,-90 923,-84 923,-78 923,-78 923,-66 923,-66 923,-60 929,-54 935,-54 935,-54 1057,-54 1057,-54 1063,-54 1069,-60 1069,-66 1069,-66 1069,-78 1069,-78 1069,-84 1063,-90 1057,-90"/>
<text text-anchor="middle" x="996" y="-68.3" font-family="Helvetica,sans-Serif" font-size="14.00">Pick up red chair 2</text>
</g>
<!-- 13&#45;&gt;14 -->
<g id="edge13" class="edge">
<title>13&#45;&gt;14</title>
<path fill="none" stroke="#696969" stroke-width="1.5" d="M857.56,-72C875.37,-72 894.55,-72 912.78,-72"/>
<polygon fill="#696969" stroke="#696969" stroke-width="1.5" points="922.79,-72 912.79,-76.5 917.79,-72.25 912.79,-72.25 912.79,-72 912.79,-71.75 917.79,-71.75 912.79,-67.5 922.79,-72 922.79,-72"/>
</g>
<!-- 15 -->
<g id="node15" class="node">
<title>15</title>
<path fill="#add8e6" stroke="black" d="M1284.5,-90C1284.5,-90 1146.5,-90 1146.5,-90 1140.5,-90 1134.5,-84 1134.5,-78 1134.5,-78 1134.5,-66 1134.5,-66 1134.5,-60 1140.5,-54 1146.5,-54 1146.5,-54 1284.5,-54 1284.5,-54 1290.5,-54 1296.5,-60 1296.5,-66 1296.5,-66 1296.5,-78 1296.5,-78 1296.5,-84 1290.5,-90 1284.5,-90"/>
<text text-anchor="middle" x="1215.5" y="-68.3" font-family="Helvetica,sans-Serif" font-size="14.00">Transport red chair 2</text>
</g>
<!-- 14&#45;&gt;15 -->
<g id="edge14" class="edge">
<title>14&#45;&gt;15</title>
<path fill="none" stroke="#696969" stroke-width="1.5" d="M1069.12,-72C1086.75,-72 1105.84,-72 1124.21,-72"/>
<polygon fill="#696969" stroke="#696969" stroke-width="1.5" points="1134.32,-72 1124.32,-76.5 1129.32,-72.25 1124.32,-72.25 1124.32,-72 1124.32,-71.75 1129.32,-71.75 1124.32,-67.5 1134.32,-72 1134.32,-72"/>
</g>
<!-- 16 -->
<g id="node16" class="node">
<title>16</title>
<path fill="#add8e6" stroke="black" d="M1484,-90C1484,-90 1374,-90 1374,-90 1368,-90 1362,-84 1362,-78 1362,-78 1362,-66 1362,-66 1362,-60 1368,-54 1374,-54 1374,-54 1484,-54 1484,-54 1490,-54 1496,-60 1496,-66 1496,-66 1496,-78 1496,-78 1496,-84 1490,-90 1484,-90"/>
<text text-anchor="middle" x="1429" y="-68.3" font-family="Helvetica,sans-Serif" font-size="14.00">Stack red chair 2</text>
</g>
<!-- 15&#45;&gt;16 -->
<g id="edge15" class="edge">
<title>15&#45;&gt;16</title>
<path fill="none" stroke="#696969" stroke-width="1.5" d="M1296.76,-72C1314.74,-72 1333.75,-72 1351.57,-72"/>
<polygon fill="#696969" stroke="#696969" stroke-width="1.5" points="1361.9,-72 1351.9,-76.5 1356.9,-72.25 1351.9,-72.25 1351.9,-72 1351.9,-71.75 1356.9,-71.75 1351.9,-67.5 1361.9,-72 1361.9,-72"/>
</g>
<!-- 18 -->
<g id="node18" class="node">
<title>18</title>
<path fill="#add8e6" stroke="black" d="M1057,-36C1057,-36 935,-36 935,-36 929,-36 923,-30 923,-24 923,-24 923,-12 923,-12 923,-6 929,0 935,0 935,0 1057,0 1057,0 1063,0 1069,-6 1069,-12 1069,-12 1069,-24 1069,-24 1069,-30 1063,-36 1057,-36"/>
<text text-anchor="middle" x="996" y="-14.3" font-family="Helvetica,sans-Serif" font-size="14.00">Pick up red chair 3</text>
</g>
<!-- 17&#45;&gt;18 -->
<g id="edge17" class="edge">
<title>17&#45;&gt;18</title>
<path fill="none" stroke="#696969" stroke-width="1.5" d="M857.56,-18C875.37,-18 894.55,-18 912.78,-18"/>
<polygon fill="#696969" stroke="#696969" stroke-width="1.5" points="922.79,-18 912.79,-22.5 917.79,-18.25 912.79,-18.25 912.79,-18 912.79,-17.75 917.79,-17.75 912.79,-13.5 922.79,-18 922.79,-18"/>
</g>
<!-- 19 -->
<g id="node19" class="node">
<title>19</title>
<path fill="#add8e6" stroke="black" d="M1284.5,-36C1284.5,-36 1146.5,-36 1146.5,-36 1140.5,-36 1134.5,-30 1134.5,-24 1134.5,-24 1134.5,-12 1134.5,-12 1134.5,-6 1140.5,0 1146.5,0 1146.5,0 1284.5,0 1284.5,0 1290.5,0 1296.5,-6 1296.5,-12 1296.5,-12 1296.5,-24 1296.5,-24 1296.5,-30 1290.5,-36 1284.5,-36"/>
<text text-anchor="middle" x="1215.5" y="-14.3" font-family="Helvetica,sans-Serif" font-size="14.00">Transport red chair 3</text>
</g>
<!-- 18&#45;&gt;19 -->
<g id="edge18" class="edge">
<title>18&#45;&gt;19</title>
<path fill="none" stroke="#696969" stroke-width="1.5" d="M1069.12,-18C1086.75,-18 1105.84,-18 1124.21,-18"/>
<polygon fill="#696969" stroke="#696969" stroke-width="1.5" points="1134.32,-18 1124.32,-22.5 1129.32,-18.25 1124.32,-18.25 1124.32,-18 1124.32,-17.75 1129.32,-17.75 1124.32,-13.5 1134.32,-18 1134.32,-18"/>
</g>
<!-- 20 -->
<g id="node20" class="node">
<title>20</title>
<path fill="#add8e6" stroke="black" d="M1484,-36C1484,-36 1374,-36 1374,-36 1368,-36 1362,-30 1362,-24 1362,-24 1362,-12 1362,-12 1362,-6 1368,0 1374,0 1374,0 1484,0 1484,0 1490,0 1496,-6 1496,-12 1496,-12 1496,-24 1496,-24 1496,-30 1490,-36 1484,-36"/>
<text text-anchor="middle" x="1429" y="-14.3" font-family="Helvetica,sans-Serif" font-size="14.00">Stack red chair 3</text>
</g>
<!-- 19&#45;&gt;20 -->
<g id="edge19" class="edge">
<title>19&#45;&gt;20</title>
<path fill="none" stroke="#696969" stroke-width="1.5" d="M1296.76,-18C1314.74,-18 1333.75,-18 1351.57,-18"/>
<polygon fill="#696969" stroke="#696969" stroke-width="1.5" points="1361.9,-18 1351.9,-22.5 1356.9,-18.25 1351.9,-18.25 1351.9,-18 1351.9,-17.75 1356.9,-17.75 1351.9,-13.5 1361.9,-18 1361.9,-18"/>
</g>
</g>
</svg>
