<?xml version="1.0" encoding="UTF-8" standalone="no"?>
<!DOCTYPE svg PUBLIC "-//W3C//DTD SVG 1.1//EN"
 "http://www.w3.org/Graphics/SVG/1.1/DTD/svg11.dtd">
<!-- Generated by graphviz version 2.43.0 (0)
 -->
<!-- Title: %3 Pages: 1 -->
<svg width="604pt" height="800pt"
 viewBox="0.00 0.00 604.00 800.00" xmlns="http://www.w3.org/2000/svg" xmlns:xlink="http://www.w3.org/1999/xlink">
<g id="graph0" class="graph" transform="scale(1 1) rotate(0) translate(4 796)">
<title>%3</title>
<polygon fill="white" stroke="transparent" points="-4,4 -4,-796 600,-796 600,4 -4,4"/>
<!-- 1 -->
<g id="node1" class="node">
<title>1</title>
<path fill="#add8e6" stroke="black" d="M336.5,-792C336.5,-792 276.5,-792 276.5,-792 270.5,-792 264.5,-786 264.5,-780 264.5,-780 264.5,-768 264.5,-768 264.5,-762 270.5,-756 276.5,-756 276.5,-756 336.5,-756 336.5,-756 342.5,-756 348.5,-762 348.5,-768 348.5,-768 348.5,-780 348.5,-780 348.5,-786 342.5,-792 336.5,-792"/>
<text text-anchor="middle" x="306.5" y="-771.5" font-family="Helvetica,sans-Serif" font-size="10.00">Walk to toolbox</text>
</g>
<!-- 2 -->
<g id="node2" class="node">
<title>2</title>
<path fill="#add8e6" stroke="black" d="M336.5,-684C336.5,-684 276.5,-684 276.5,-684 270.5,-684 264.5,-678 264.5,-672 264.5,-672 264.5,-660 264.5,-660 264.5,-654 270.5,-648 276.5,-648 276.5,-648 336.5,-648 336.5,-648 342.5,-648 348.5,-654 348.5,-660 348.5,-660 348.5,-672 348.5,-672 348.5,-678 342.5,-684 336.5,-684"/>
<text text-anchor="middle" x="306.5" y="-663.5" font-family="Helvetica,sans-Serif" font-size="10.00">Pick up toolbox</text>
</g>
<!-- 1&#45;&gt;2 -->
<g id="edge1" class="edge">
<title>1&#45;&gt;2</title>
<path fill="none" stroke="#696969" stroke-width="1.5" d="M306.5,-755.97C306.5,-739.38 306.5,-713.88 306.5,-694.43"/>
<polygon fill="#696969" stroke="#696969" stroke-width="1.5" points="306.5,-684.34 311,-694.34 306.75,-689.34 306.75,-694.34 306.5,-694.34 306.25,-694.34 306.25,-689.34 302,-694.34 306.5,-684.34 306.5,-684.34"/>
</g>
<!-- 3 -->
<g id="node3" class="node">
<title>3</title>
<path fill="#add8e6" stroke="black" d="M340.5,-576C340.5,-576 272.5,-576 272.5,-576 266.5,-576 260.5,-570 260.5,-564 260.5,-564 260.5,-552 260.5,-552 260.5,-546 266.5,-540 272.5,-540 272.5,-540 340.5,-540 340.5,-540 346.5,-540 352.5,-546 352.5,-552 352.5,-552 352.5,-564 352.5,-564 352.5,-570 346.5,-576 340.5,-576"/>
<text text-anchor="middle" x="306.5" y="-555.5" font-family="Helvetica,sans-Serif" font-size="10.00">Transport toolbox</text>
</g>
<!-- 2&#45;&gt;3 -->
<g id="edge2" class="edge">
<title>2&#45;&gt;3</title>
<path fill="none" stroke="#696969" stroke-width="1.5" d="M306.5,-647.97C306.5,-631.38 306.5,-605.88 306.5,-586.43"/>
<polygon fill="#696969" stroke="#696969" stroke-width="1.5" points="306.5,-576.34 311,-586.34 306.75,-581.34 306.75,-586.34 306.5,-586.34 306.25,-586.34 306.25,-581.34 302,-586.34 306.5,-576.34 306.5,-576.34"/>
</g>
<!-- 4 -->
<g id="node4" class="node">
<title>4</title>
<path fill="#add8e6" stroke="black" d="M351,-468C351,-468 262,-468 262,-468 256,-468 250,-462 250,-456 250,-456 250,-444 250,-444 250,-438 256,-432 262,-432 262,-432 351,-432 351,-432 357,-432 363,-438 363,-444 363,-444 363,-456 363,-456 363,-462 357,-468 351,-468"/>
<text text-anchor="middle" x="306.5" y="-447.5" font-family="Helvetica,sans-Serif" font-size="10.00">Place toolbox on table</text>
</g>
<!-- 3&#45;&gt;4 -->
<g id="edge3" class="edge">
<title>3&#45;&gt;4</title>
<path fill="none" stroke="#696969" stroke-width="1.5" d="M306.5,-539.97C306.5,-523.38 306.5,-497.88 306.5,-478.43"/>
<polygon fill="#696969" stroke="#696969" stroke-width="1.5" points="306.5,-468.34 311,-478.34 306.75,-473.34 306.75,-478.34 306.5,-478.34 306.25,-478.34 306.25,-473.34 302,-478.34 306.5,-468.34 306.5,-468.34"/>
</g>
<!-- 5 -->
<g id="node5" class="node">
<title>5</title>
<path fill="#add8e6" stroke="black" d="M119.5,-360C119.5,-360 27.5,-360 27.5,-360 21.5,-360 15.5,-354 15.5,-348 15.5,-348 15.5,-336 15.5,-336 15.5,-330 21.5,-324 27.5,-324 27.5,-324 119.5,-324 119.5,-324 125.5,-324 131.5,-330 131.5,-336 131.5,-336 131.5,-348 131.5,-348 131.5,-354 125.5,-360 119.5,-360"/>
<text text-anchor="middle" x="73.5" y="-339.5" font-family="Helvetica,sans-Serif" font-size="10.00">Walk to turquoise chair</text>
</g>
<!-- 4&#45;&gt;5 -->
<g id="edge4" class="edge">
<title>4&#45;&gt;5</title>
<path fill="none" stroke="#696969" stroke-width="1.5" d="M269.06,-431.97C228.68,-413.6 164.28,-384.3 120.51,-364.39"/>
<polygon fill="#696969" stroke="#696969" stroke-width="1.5" points="111.23,-360.16 122.19,-360.21 115.88,-362.01 120.43,-364.08 120.33,-364.31 120.23,-364.53 115.68,-362.46 118.47,-368.4 111.23,-360.16 111.23,-360.16"/>
</g>
<!-- 9 -->
<g id="node9" class="node">
<title>9</title>
<path fill="#add8e6" stroke="black" d="M269.5,-360C269.5,-360 195.5,-360 195.5,-360 189.5,-360 183.5,-354 183.5,-348 183.5,-348 183.5,-336 183.5,-336 183.5,-330 189.5,-324 195.5,-324 195.5,-324 269.5,-324 269.5,-324 275.5,-324 281.5,-330 281.5,-336 281.5,-336 281.5,-348 281.5,-348 281.5,-354 275.5,-360 269.5,-360"/>
<text text-anchor="middle" x="232.5" y="-339.5" font-family="Helvetica,sans-Serif" font-size="10.00">Walk to red chair 1</text>
</g>
<!-- 4&#45;&gt;9 -->
<g id="edge8" class="edge">
<title>4&#45;&gt;9</title>
<path fill="none" stroke="#696969" stroke-width="1.5" d="M294.61,-431.97C282.65,-414.84 264.07,-388.22 250.34,-368.56"/>
<polygon fill="#696969" stroke="#696969" stroke-width="1.5" points="244.61,-360.34 254.02,-365.96 247.67,-364.3 250.53,-368.4 250.33,-368.54 250.12,-368.68 247.26,-364.58 246.64,-371.12 244.61,-360.34 244.61,-360.34"/>
</g>
<!-- 13 -->
<g id="node13" class="node">
<title>13</title>
<path fill="#add8e6" stroke="black" d="M419.5,-360C419.5,-360 345.5,-360 345.5,-360 339.5,-360 333.5,-354 333.5,-348 333.5,-348 333.5,-336 333.5,-336 333.5,-330 339.5,-324 345.5,-324 345.5,-324 419.5,-324 419.5,-324 425.5,-324 431.5,-330 431.5,-336 431.5,-336 431.5,-348 431.5,-348 431.5,-354 425.5,-360 419.5,-360"/>
<text text-anchor="middle" x="382.5" y="-339.5" font-family="Helvetica,sans-Serif" font-size="10.00">Walk to red chair 2</text>
</g>
<!-- 4&#45;&gt;13 -->
<g id="edge12" class="edge">
<title>4&#45;&gt;13</title>
<path fill="none" stroke="#696969" stroke-width="1.5" d="M318.71,-431.97C330.99,-414.84 350.08,-388.22 364.17,-368.56"/>
<polygon fill="#696969" stroke="#696969" stroke-width="1.5" points="370.07,-360.34 367.9,-371.09 367.36,-364.55 364.44,-368.61 364.24,-368.47 364.04,-368.32 366.95,-364.26 360.58,-365.85 370.07,-360.34 370.07,-360.34"/>
</g>
<!-- 17 -->
<g id="node17" class="node">
<title>17</title>
<path fill="#add8e6" stroke="black" d="M573.5,-360C573.5,-360 499.5,-360 499.5,-360 493.5,-360 487.5,-354 487.5,-348 487.5,-348 487.5,-336 487.5,-336 487.5,-330 493.5,-324 499.5,-324 499.5,-324 573.5,-324 573.5,-324 579.5,-324 585.5,-330 585.5,-336 585.5,-336 585.5,-348 585.5,-348 585.5,-354 579.5,-360 573.5,-360"/>
<text text-anchor="middle" x="536.5" y="-339.5" font-family="Helvetica,sans-Serif" font-size="10.00">Walk to red chair 3</text>
</g>
<!-- 4&#45;&gt;17 -->
<g id="edge16" class="edge">
<title>4&#45;&gt;17</title>
<path fill="none" stroke="#696969" stroke-width="1.5" d="M343.45,-431.97C383.32,-413.6 446.89,-384.3 490.09,-364.39"/>
<polygon fill="#696969" stroke="#696969" stroke-width="1.5" points="499.26,-360.16 492.06,-368.44 494.82,-362.48 490.28,-364.58 490.17,-364.35 490.07,-364.12 494.61,-362.03 488.29,-360.26 499.26,-360.16 499.26,-360.16"/>
</g>
<!-- 6 -->
<g id="node6" class="node">
<title>6</title>
<path fill="#add8e6" stroke="black" d="M115.5,-252C115.5,-252 23.5,-252 23.5,-252 17.5,-252 11.5,-246 11.5,-240 11.5,-240 11.5,-228 11.5,-228 11.5,-222 17.5,-216 23.5,-216 23.5,-216 115.5,-216 115.5,-216 121.5,-216 127.5,-222 127.5,-228 127.5,-228 127.5,-240 127.5,-240 127.5,-246 121.5,-252 115.5,-252"/>
<text text-anchor="middle" x="69.5" y="-231.5" font-family="Helvetica,sans-Serif" font-size="10.00">Pick up turquoise chair</text>
</g>
<!-- 5&#45;&gt;6 -->
<g id="edge5" class="edge">
<title>5&#45;&gt;6</title>
<path fill="none" stroke="#696969" stroke-width="1.5" d="M72.86,-323.97C72.23,-307.38 71.27,-281.88 70.54,-262.43"/>
<polygon fill="#696969" stroke="#696969" stroke-width="1.5" points="70.15,-252.34 75.03,-262.16 70.59,-257.33 70.78,-262.32 70.53,-262.33 70.28,-262.34 70.09,-257.35 66.03,-262.5 70.15,-252.34 70.15,-252.34"/>
</g>
<!-- 7 -->
<g id="node7" class="node">
<title>7</title>
<path fill="#add8e6" stroke="black" d="M113,-144C113,-144 12,-144 12,-144 6,-144 0,-138 0,-132 0,-132 0,-120 0,-120 0,-114 6,-108 12,-108 12,-108 113,-108 113,-108 119,-108 125,-114 125,-120 125,-120 125,-132 125,-132 125,-138 119,-144 113,-144"/>
<text text-anchor="middle" x="62.5" y="-123.5" font-family="Helvetica,sans-Serif" font-size="10.00">Transport turquoise chair</text>
</g>
<!-- 6&#45;&gt;7 -->
<g id="edge6" class="edge">
<title>6&#45;&gt;7</title>
<path fill="none" stroke="#696969" stroke-width="1.5" d="M68.38,-215.97C67.28,-199.38 65.6,-173.88 64.31,-154.43"/>
<polygon fill="#696969" stroke="#696969" stroke-width="1.5" points="63.65,-144.34 68.79,-154.02 64.22,-149.31 64.55,-154.3 64.3,-154.32 64.05,-154.34 63.73,-149.35 59.81,-154.62 63.65,-144.34 63.65,-144.34"/>
</g>
<!-- 8 -->
<g id="node8" class="node">
<title>8</title>
<path fill="#add8e6" stroke="black" d="M105,-36C105,-36 20,-36 20,-36 14,-36 8,-30 8,-24 8,-24 8,-12 8,-12 8,-6 14,0 20,0 20,0 105,0 105,0 111,0 117,-6 117,-12 117,-12 117,-24 117,-24 117,-30 111,-36 105,-36"/>
<text text-anchor="middle" x="62.5" y="-15.5" font-family="Helvetica,sans-Serif" font-size="10.00">Stack turquoise chair</text>
</g>
<!-- 7&#45;&gt;8 -->
<g id="edge7" class="edge">
<title>7&#45;&gt;8</title>
<path fill="none" stroke="#696969" stroke-width="1.5" d="M62.5,-107.97C62.5,-91.38 62.5,-65.88 62.5,-46.43"/>
<polygon fill="#696969" stroke="#696969" stroke-width="1.5" points="62.5,-36.34 67,-46.34 62.75,-41.34 62.75,-46.34 62.5,-46.34 62.25,-46.34 62.25,-41.34 58,-46.34 62.5,-36.34 62.5,-36.34"/>
</g>
<!-- 10 -->
<g id="node10" class="node">
<title>10</title>
<path fill="#add8e6" stroke="black" d="M269.5,-252C269.5,-252 195.5,-252 195.5,-252 189.5,-252 183.5,-246 183.5,-240 183.5,-240 183.5,-228 183.5,-228 183.5,-222 189.5,-216 195.5,-216 195.5,-216 269.5,-216 269.5,-216 275.5,-216 281.5,-222 281.5,-228 281.5,-228 281.5,-240 281.5,-240 281.5,-246 275.5,-252 269.5,-252"/>
<text text-anchor="middle" x="232.5" y="-231.5" font-family="Helvetica,sans-Serif" font-size="10.00">Pick up red chair 1</text>
</g>
<!-- 9&#45;&gt;10 -->
<g id="edge9" class="edge">
<title>9&#45;&gt;10</title>
<path fill="none" stroke="#696969" stroke-width="1.5" d="M232.5,-323.97C232.5,-307.38 232.5,-281.88 232.5,-262.43"/>
<polygon fill="#696969" stroke="#696969" stroke-width="1.5" points="232.5,-252.34 237,-262.34 232.75,-257.34 232.75,-262.34 232.5,-262.34 232.25,-262.34 232.25,-257.34 228,-262.34 232.5,-252.34 232.5,-252.34"/>
</g>
<!-- 11 -->
<g id="node11" class="node">
<title>11</title>
<path fill="#add8e6" stroke="black" d="M270,-144C270,-144 187,-144 187,-144 181,-144 175,-138 175,-132 175,-132 175,-120 175,-120 175,-114 181,-108 187,-108 187,-108 270,-108 270,-108 276,-108 282,-114 282,-120 282,-120 282,-132 282,-132 282,-138 276,-144 270,-144"/>
<text text-anchor="middle" x="228.5" y="-123.5" font-family="Helvetica,sans-Serif" font-size="10.00">Transport red chair 1</text>
</g>
<!-- 10&#45;&gt;11 -->
<g id="edge10" class="edge">
<title>10&#45;&gt;11</title>
<path fill="none" stroke="#696969" stroke-width="1.5" d="M231.86,-215.97C231.23,-199.38 230.27,-173.88 229.54,-154.43"/>
<polygon fill="#696969" stroke="#696969" stroke-width="1.5" points="229.15,-144.34 234.03,-154.16 229.59,-149.33 229.78,-154.32 229.53,-154.33 229.28,-154.34 229.09,-149.35 225.03,-154.5 229.15,-144.34 229.15,-144.34"/>
</g>
<!-- 12 -->
<g id="node12" class="node">
<title>12</title>
<path fill="#add8e6" stroke="black" d="M262,-36C262,-36 195,-36 195,-36 189,-36 183,-30 183,-24 183,-24 183,-12 183,-12 183,-6 189,0 195,0 195,0 262,0 262,0 268,0 274,-6 274,-12 274,-12 274,-24 274,-24 274,-30 268,-36 262,-36"/>
<text text-anchor="middle" x="228.5" y="-15.5" font-family="Helvetica,sans-Serif" font-size="10.00">Stack red chair 1</text>
</g>
<!-- 11&#45;&gt;12 -->
<g id="edge11" class="edge">
<title>11&#45;&gt;12</title>
<path fill="none" stroke="#696969" stroke-width="1.5" d="M228.5,-107.97C228.5,-91.38 228.5,-65.88 228.5,-46.43"/>
<polygon fill="#696969" stroke="#696969" stroke-width="1.5" points="228.5,-36.34 233,-46.34 228.75,-41.34 228.75,-46.34 228.5,-46.34 228.25,-46.34 228.25,-41.34 224,-46.34 228.5,-36.34 228.5,-36.34"/>
</g>
<!-- 14 -->
<g id="node14" class="node">
<title>14</title>
<path fill="#add8e6" stroke="black" d="M419.5,-252C419.5,-252 345.5,-252 345.5,-252 339.5,-252 333.5,-246 333.5,-240 333.5,-240 333.5,-228 333.5,-228 333.5,-222 339.5,-216 345.5,-216 345.5,-216 419.5,-216 419.5,-216 425.5,-216 431.5,-222 431.5,-228 431.5,-228 431.5,-240 431.5,-240 431.5,-246 425.5,-252 419.5,-252"/>
<text text-anchor="middle" x="382.5" y="-231.5" font-family="Helvetica,sans-Serif" font-size="10.00">Pick up red chair 2</text>
</g>
<!-- 13&#45;&gt;14 -->
<g id="edge13" class="edge">
<title>13&#45;&gt;14</title>
<path fill="none" stroke="#696969" stroke-width="1.5" d="M382.5,-323.97C382.5,-307.38 382.5,-281.88 382.5,-262.43"/>
<polygon fill="#696969" stroke="#696969" stroke-width="1.5" points="382.5,-252.34 387,-262.34 382.75,-257.34 382.75,-262.34 382.5,-262.34 382.25,-262.34 382.25,-257.34 378,-262.34 382.5,-252.34 382.5,-252.34"/>
</g>
<!-- 15 -->
<g id="node15" class="node">
<title>15</title>
<path fill="#add8e6" stroke="black" d="M427,-144C427,-144 344,-144 344,-144 338,-144 332,-138 332,-132 332,-132 332,-120 332,-120 332,-114 338,-108 344,-108 344,-108 427,-108 427,-108 433,-108 439,-114 439,-120 439,-120 439,-132 439,-132 439,-138 433,-144 427,-144"/>
<text text-anchor="middle" x="385.5" y="-123.5" font-family="Helvetica,sans-Serif" font-size="10.00">Transport red chair 2</text>
</g>
<!-- 14&#45;&gt;15 -->
<g id="edge14" class="edge">
<title>14&#45;&gt;15</title>
<path fill="none" stroke="#696969" stroke-width="1.5" d="M382.98,-215.97C383.45,-199.38 384.17,-173.88 384.72,-154.43"/>
<polygon fill="#696969" stroke="#696969" stroke-width="1.5" points="385.01,-144.34 389.22,-154.46 385.12,-149.35 384.98,-154.34 384.73,-154.34 384.48,-154.33 384.62,-149.33 380.23,-154.21 385.01,-144.34 385.01,-144.34"/>
</g>
<!-- 16 -->
<g id="node16" class="node">
<title>16</title>
<path fill="#add8e6" stroke="black" d="M419,-36C419,-36 352,-36 352,-36 346,-36 340,-30 340,-24 340,-24 340,-12 340,-12 340,-6 346,0 352,0 352,0 419,0 419,0 425,0 431,-6 431,-12 431,-12 431,-24 431,-24 431,-30 425,-36 419,-36"/>
<text text-anchor="middle" x="385.5" y="-15.5" font-family="Helvetica,sans-Serif" font-size="10.00">Stack red chair 2</text>
</g>
<!-- 15&#45;&gt;16 -->
<g id="edge15" class="edge">
<title>15&#45;&gt;16</title>
<path fill="none" stroke="#696969" stroke-width="1.5" d="M385.5,-107.97C385.5,-91.38 385.5,-65.88 385.5,-46.43"/>
<polygon fill="#696969" stroke="#696969" stroke-width="1.5" points="385.5,-36.34 390,-46.34 385.75,-41.34 385.75,-46.34 385.5,-46.34 385.25,-46.34 385.25,-41.34 381,-46.34 385.5,-36.34 385.5,-36.34"/>
</g>
<!-- 18 -->
<g id="node18" class="node">
<title>18</title>
<path fill="#add8e6" stroke="black" d="M576.5,-252C576.5,-252 502.5,-252 502.5,-252 496.5,-252 490.5,-246 490.5,-240 490.5,-240 490.5,-228 490.5,-228 490.5,-222 496.5,-216 502.5,-216 502.5,-216 576.5,-216 576.5,-216 582.5,-216 588.5,-222 588.5,-228 588.5,-228 588.5,-240 588.5,-240 588.5,-246 582.5,-252 576.5,-252"/>
<text text-anchor="middle" x="539.5" y="-231.5" font-family="Helvetica,sans-Serif" font-size="10.00">Pick up red chair 3</text>
</g>
<!-- 17&#45;&gt;18 -->
<g id="edge17" class="edge">
<title>17&#45;&gt;18</title>
<path fill="none" stroke="#696969" stroke-width="1.5" d="M536.98,-323.97C537.45,-307.38 538.17,-281.88 538.72,-262.43"/>
<polygon fill="#696969" stroke="#696969" stroke-width="1.5" points="539.01,-252.34 543.22,-262.46 539.12,-257.35 538.98,-262.34 538.73,-262.34 538.48,-262.33 538.62,-257.33 534.23,-262.21 539.01,-252.34 539.01,-252.34"/>
</g>
<!-- 19 -->
<g id="node19" class="node">
<title>19</title>
<path fill="#add8e6" stroke="black" d="M584,-144C584,-144 501,-144 501,-144 495,-144 489,-138 489,-132 489,-132 489,-120 489,-120 489,-114 495,-108 501,-108 501,-108 584,-108 584,-108 590,-108 596,-114 596,-120 596,-120 596,-132 596,-132 596,-138 590,-144 584,-144"/>
<text text-anchor="middle" x="542.5" y="-123.5" font-family="Helvetica,sans-Serif" font-size="10.00">Transport red chair 3</text>
</g>
<!-- 18&#45;&gt;19 -->
<g id="edge18" class="edge">
<title>18&#45;&gt;19</title>
<path fill="none" stroke="#696969" stroke-width="1.5" d="M539.98,-215.97C540.45,-199.38 541.17,-173.88 541.72,-154.43"/>
<polygon fill="#696969" stroke="#696969" stroke-width="1.5" points="542.01,-144.34 546.22,-154.46 542.12,-149.35 541.98,-154.34 541.73,-154.34 541.48,-154.33 541.62,-149.33 537.23,-154.21 542.01,-144.34 542.01,-144.34"/>
</g>
<!-- 20 -->
<g id="node20" class="node">
<title>20</title>
<path fill="#add8e6" stroke="black" d="M576,-36C576,-36 509,-36 509,-36 503,-36 497,-30 497,-24 497,-24 497,-12 497,-12 497,-6 503,0 509,0 509,0 576,0 576,0 582,0 588,-6 588,-12 588,-12 588,-24 588,-24 588,-30 582,-36 576,-36"/>
<text text-anchor="middle" x="542.5" y="-15.5" font-family="Helvetica,sans-Serif" font-size="10.00">Stack red chair 3</text>
</g>
<!-- 19&#45;&gt;20 -->
<g id="edge19" class="edge">
<title>19&#45;&gt;20</title>
<path fill="none" stroke="#696969" stroke-width="1.5" d="M542.5,-107.97C542.5,-91.38 542.5,-65.88 542.5,-46.43"/>
<polygon fill="#696969" stroke="#696969" stroke-width="1.5" points="542.5,-36.34 547,-46.34 542.75,-41.34 542.75,-46.34 542.5,-46.34 542.25,-46.34 542.25,-41.34 538,-46.34 542.5,-36.34 542.5,-36.34"/>
</g>
</g>
</svg>
